<svg width="64" height="64" viewBox="0 0 64 64" xmlns="http://www.w3.org/2000/svg">
  <!-- Background circle with beige fill like original -->
  <circle cx="32" cy="32" r="30" fill="#F5E6D3" stroke="#4ECDC4" stroke-width="2"/>
  
  <!-- Target circles in teal/green -->
  <circle cx="32" cy="32" r="24" fill="none" stroke="#4ECDC4" stroke-width="2"/>
  <circle cx="32" cy="32" r="16" fill="none" stroke="#4ECDC4" stroke-width="2"/>
  <circle cx="32" cy="32" r="8" fill="none" stroke="#4ECDC4" stroke-width="2"/>
  
  <!-- Crosshair lines in teal/green -->
  <line x1="32" y1="8" x2="32" y2="24" stroke="#4ECDC4" stroke-width="2"/>
  <line x1="32" y1="40" x2="32" y2="56" stroke="#4ECDC4" stroke-width="2"/>
  <line x1="8" y1="32" x2="24" y2="32" stroke="#4ECDC4" stroke-width="2"/>
  <line x1="40" y1="32" x2="56" y2="32" stroke="#4ECDC4" stroke-width="2"/>
  
  <!-- Center dot in teal/green -->
  <circle cx="32" cy="32" r="3" fill="#4ECDC4"/>
  
  <!-- Decorative elements in red -->
  <rect x="8" y="8" width="4" height="4" fill="#FF6B6B" rx="1"/>
  <rect x="52" y="8" width="4" height="4" fill="#FF6B6B" rx="1"/>
  <rect x="8" y="52" width="4" height="4" fill="#FF6B6B" rx="1"/>
  <rect x="52" y="52" width="4" height="4" fill="#FF6B6B" rx="1"/>
  
  <!-- Sparkles in yellow/gold -->
  <circle cx="16" cy="16" r="1.5" fill="#FFD93D"/>
  <circle cx="48" cy="16" r="1.5" fill="#FFD93D"/>
  <circle cx="16" cy="48" r="1.5" fill="#FFD93D"/>
  <circle cx="48" cy="48" r="1.5" fill="#FFD93D"/>
</svg>
